<svg xmlns="http://www.w3.org/2000/svg" viewBox="0 0 95.12 63.83"><defs><style>.cls-1{fill:#00629b;}</style></defs><title>davis_pumps</title><g id="Layer_2" data-name="Layer 2"><g id="graphics"><path class="cls-1" d="M25.56,13a16.26,16.26,0,0,0-14.9,9.75h14.9a6.49,6.49,0,0,1,5.53,3.08V14a16.12,16.12,0,0,0-5.53-1"/><path class="cls-1" d="M10.28,23.73a16,16,0,0,0-1,5.52,16.25,16.25,0,0,0,9.75,14.9V29.25a6.48,6.48,0,0,1,3.08-5.52Z"/><path class="cls-1" d="M40.85,34.78a16.35,16.35,0,0,0,1-5.53V0H32.06V29.25A6.52,6.52,0,0,1,29,34.78Z"/><path class="cls-1" d="M25.56,35.75A6.49,6.49,0,0,1,20,32.68V44.54a16.28,16.28,0,0,0,20.42-8.79Z"/><path class="cls-1" d="M59,45.5a16.26,16.26,0,0,0,14.9-9.75H59a6.52,6.52,0,0,1-5.53-3.07V44.54a16.35,16.35,0,0,0,5.53,1"/><path class="cls-1" d="M74.33,34.78a16.29,16.29,0,0,0-8.79-20.43v14.9a6.51,6.51,0,0,1-3.08,5.53Z"/><path class="cls-1" d="M43.75,23.73a16.25,16.25,0,0,0-1,5.52V58.5h9.75V29.25a6.48,6.48,0,0,1,3.08-5.52Z"/><path class="cls-1" d="M59,22.75a6.48,6.48,0,0,1,5.52,3.08V14a16.28,16.28,0,0,0-20.42,8.79Z"/><path class="cls-1" d="M2.35,58.52H0V49H2.74a4.66,4.66,0,0,1,4,1.69A5,5,0,0,1,7.81,53.8a4.53,4.53,0,0,1-4.38,4.72H2.84V56.38h.35a2.4,2.4,0,0,0,2.18-2.59A2.47,2.47,0,0,0,2.83,51.1H2.35Z"/><path class="cls-1" d="M15.66,58.52H13.29V55.15H11.4v-2h1.89v-.71c0-1-.37-1.5-1.13-1.5S11,51.49,11,52.46v6.06H8.59v-6c0-2.31,1.36-3.76,3.53-3.76s3.54,1.48,3.54,3.85Z"/><path class="cls-1" d="M21.67,49h2.44L22,57.13a1.77,1.77,0,0,1-2,1.55c-1.07,0-1.63-.49-1.94-1.65L16.09,49h2.4l1.65,6.81Z"/><rect class="cls-1" x="24.79" y="48.95" width="2.35" height="9.57"/><path class="cls-1" d="M34.37,56.51v2H33a4.47,4.47,0,0,1-4.1-2A4.8,4.8,0,0,1,32.85,49h1.52v2h-.9a2.53,2.53,0,0,0-2.73,1.86h3.63v1.81H30.74A2.32,2.32,0,0,0,31.57,56a2.89,2.89,0,0,0,1.83.52Z"/><path class="cls-1" d="M35.34,58.52V56.38h2.79c.9,0,1.26-.14,1.26-.49s-.25-.46-.91-.93l-2-1.44a2.21,2.21,0,0,1-1.15-2c0-1.67,1.19-2.61,3.3-2.61h2.73V51.1H39.27c-1.23,0-1.55.08-1.55.47,0,.16.15.32.51.56l.35.25,2.26,1.53a2.13,2.13,0,0,1,1,1.82,2.63,2.63,0,0,1-1.56,2.5,5.08,5.08,0,0,1-1.94.29Z"/><path class="cls-1" d="M55.88,58.5H53.51v-6c0-2.29,1.34-3.74,3.45-3.74a3.38,3.38,0,0,1,3.5,3.39,3.15,3.15,0,0,1-3.33,3.3h-.76V53.32H57A1.18,1.18,0,1,0,57,51c-.77,0-1.16.54-1.16,1.62Z"/><path class="cls-1" d="M65.84,48.93h2.37v6.16a3.53,3.53,0,0,1-.47,2,3.21,3.21,0,0,1-.85,1,3.55,3.55,0,0,1-2.22.67,3.43,3.43,0,0,1-3-1.56,3.33,3.33,0,0,1-.49-2V48.93h2.37v6c0,1,.38,1.54,1.17,1.54s1.14-.51,1.14-1.6Z"/><path class="cls-1" d="M80.07,58.5H77.75l-.51-6.4-1.6,5.54c-.19.66-.53,1-1.06,1s-.87-.3-1.11-1.16L72,52.1l-.54,6.4H69.14l.81-8a1.56,1.56,0,0,1,1.76-1.63c1,0,1.49.4,1.78,1.49l1.11,4.2,1.15-4c.36-1.28.78-1.65,1.84-1.65s1.68.44,1.78,1.65Z"/><path class="cls-1" d="M83.5,58.5H81.13v-6c0-2.29,1.33-3.74,3.44-3.74a3.38,3.38,0,0,1,3.5,3.39,3.15,3.15,0,0,1-3.33,3.3H84V53.32h.63a1.18,1.18,0,1,0,0-2.35c-.78,0-1.16.54-1.16,1.62Z"/><path class="cls-1" d="M88.65,58.5V56.37h2.78c.91,0,1.26-.15,1.26-.49s-.24-.46-.9-.94l-2-1.43a2.23,2.23,0,0,1-1.15-2c0-1.66,1.2-2.61,3.31-2.61h2.72v2.15h-2c-1.23,0-1.55.09-1.55.48,0,.16.14.31.5.56l.36.24,2.25,1.54a2.1,2.1,0,0,1,1,1.82,2.65,2.65,0,0,1-1.56,2.5,5.1,5.1,0,0,1-1.94.28Z"/><path class="cls-1" d="M53.42,63.79v-.5h1.36c.63,0,.92-.19.92-.62,0-.26-.17-.47-.5-.62l-1.07-.52a1,1,0,0,1-.72-1c0-.69.46-1.06,1.34-1.06h1.32V60H54.91c-.67,0-.91.15-.91.57,0,.26.13.42.45.57l1.14.52a1.07,1.07,0,0,1,.7,1c0,.74-.46,1.13-1.35,1.13Z"/><rect class="cls-1" x="57.01" y="59.46" width="0.58" height="4.33"/><path class="cls-1" d="M61,59.46h.58v3.79c0,.4-.14.58-.44.58s-.43-.16-.58-.47L59,60.23v3.56h-.58V60c0-.42.14-.61.45-.61a.69.69,0,0,1,.61.48L61,63Z"/><path class="cls-1" d="M64.76,63.27v.52h-.17a3.83,3.83,0,0,1-1-.09,1.83,1.83,0,0,1-.69-.33,2.18,2.18,0,0,1,1.39-3.91h.46V60h-.31a1.66,1.66,0,0,0-1,3.07,2.08,2.08,0,0,0,1.19.22Z"/><path class="cls-1" d="M67.79,63.29v.5h-.51a2.16,2.16,0,0,1-2.22-2.16,2.16,2.16,0,0,1,2.23-2.17h.5V60H67.5a1.74,1.74,0,0,0-1.57.74,1.4,1.4,0,0,0-.22.63h2.08v.5H65.71A1.5,1.5,0,0,0,67,63.25a2.92,2.92,0,0,0,.46,0Z"/><polygon class="cls-1" points="71.99 63.79 71.43 63.79 71.43 59.93 70.77 59.93 70.82 59.46 71.99 59.46 71.99 63.79"/><path class="cls-1" d="M74.39,63.79h-.66l1.3-2a1.38,1.38,0,0,0,.36-.9,1,1,0,1,0-1,1,1.17,1.17,0,0,0,.42-.09l-.32.54h-.1a1.43,1.43,0,0,1-1.51-1.44,1.56,1.56,0,0,1,3.12,0,1.76,1.76,0,0,1-.36,1Z"/><path class="cls-1" d="M76.47,63.79v-.51h1.1a1,1,0,0,0,.84-.27.82.82,0,0,0,.2-.54.79.79,0,0,0-.44-.73,1.54,1.54,0,0,0-.6-.09h-.66v-.29l1.31-1.24,0,0s0,0,0,0,0-.05-.13-.05H76.48v-.52h1.9c.35,0,.55.15.55.42s0,.22-.3.47l-.94.9a1.44,1.44,0,0,1,1.11.34,1.19,1.19,0,0,1,.39.9,1.27,1.27,0,0,1-.61,1.1,1.86,1.86,0,0,1-.93.2Z"/><polygon class="cls-1" points="81.13 63.79 80.56 63.79 80.56 59.93 79.91 59.93 79.95 59.46 81.13 59.46 81.13 63.79"/></g></g></svg>