<svg xmlns="http://www.w3.org/2000/svg" viewBox="0 0 278.98 40.51"><defs><style>.cls-1{fill:#00629b;}</style></defs><title>grundfos</title><g id="Layer_2" data-name="Layer 2"><g id="graphics"><path class="cls-1" d="M80.32,25.3v8.63c0,2.32-.54,3.3-1.75,4.3-1.87,1.54-5.49,2.2-9.66,2.2s-7.66-.66-9.53-2.2c-1.2-1-1.77-2-1.77-4.3V25.3H65.4v8.1c0,2.81,1.24,3.69,3.59,3.69s3.57-.88,3.57-3.69V25.3Z"/><polygon class="cls-1" points="101.33 40 90.29 32.55 90.29 40 85.68 40 85.68 25.3 92.33 25.3 103.36 32.82 103.36 25.3 107.94 25.3 107.94 40 101.33 40"/><path class="cls-1" d="M113.76,25.3V40h12.1c8.82,0,12.92-1.58,12.92-7.39s-4.1-7.31-12.92-7.31Zm7.74,3.33h3.56c3.53,0,5.54.9,5.54,4,0,2.91-2,4-5.54,4H121.5Z"/><path class="cls-1" d="M193.33,32.55c0-4.73-4.23-7.69-13.78-7.69s-13.85,2.93-13.85,7.71c0,5.3,4.18,7.86,13.85,7.86s13.78-2.57,13.78-7.88m-8.46.1c0,3.25-1.64,4.43-5.39,4.43-3.33,0-5.33-1.18-5.33-4.43s2-4.42,5.33-4.42,5.39,1.15,5.39,4.42"/><path class="cls-1" d="M40.75,32.89,45.57,40h8.51l-4.95-6.37a3.91,3.91,0,0,0,4-4.15c0-4.16-5-4.18-8.18-4.18H30.49V40h7.69V28.35h3.56c1.72,0,3.29.32,3.29,2.06,0,1.94-.68,2.48-4.29,2.48"/><polygon class="cls-1" points="151.43 28.82 161.98 28.82 164.17 25.3 143.53 25.3 143.53 40 151.43 40 151.43 35.73 160 35.73 162.21 32.22 151.43 32.22 151.43 28.82"/><path class="cls-1" d="M0,32.83c0,5.37,4.35,7.52,14,7.52A63.72,63.72,0,0,0,25.2,39.5V32.68H17.47v4.09a21.45,21.45,0,0,1-2.79.18c-5.39,0-6.42-2-6.42-4.2s1.23-4.29,7-4.29a41.73,41.73,0,0,1,7.91.66l2.19-3.49A88.75,88.75,0,0,0,14,25C4.44,25,0,27.48,0,32.83"/><path class="cls-1" d="M196.25,40a95.67,95.67,0,0,0,11.07.49c9,0,12.93-1.29,12.93-4.9,0-3.21-4.35-4-8.4-4.57-3.35-.5-5.32-.49-5.32-1.85s3.46-1.29,5.7-1.29a35.42,35.42,0,0,1,5.68.5l1.91-3.11c-1.49-.16-5.5-.5-10-.5-8.06,0-13,1.16-13,4.36,0,3.39,4.3,3.86,8.49,4.49,3.39.52,5.2.49,5.2,1.82,0,1.49-3,1.58-6,1.58a31.18,31.18,0,0,1-6.11-.65Z"/><path class="cls-1" d="M253.85,25.15a21.46,21.46,0,0,1,2.74,2.41,27.82,27.82,0,0,1,2.46,2.73L249.35,40H239Z"/><path class="cls-1" d="M279,0V10.34L263.45,25.89c-.81-.88-1.58-1.67-2.43-2.51-8.79-8.65-17.8-13.73-20.21-11.36-1.87,1.84.87,7.57,6,13.82L244.65,28a51.85,51.85,0,0,1-8.5-13.48c-1.22-3.12-2-7,0-9,1.8-1.81,5.45-1.63,10.25.53A60.31,60.31,0,0,1,262,17Z"/><path class="cls-1" d="M270.27,25.67c3.55,4.21,7.36,10.22,8.71,14.33h-5.73a37.39,37.39,0,0,0-6.83-10.48Z"/><path class="cls-1" d="M227.6,25.2a2,2,0,0,0-1.44,3.48,1.93,1.93,0,0,0,1.44.6,2,2,0,0,0,1.44-.6,2,2,0,0,0,.59-1.44,2,2,0,0,0-.6-1.44,1.93,1.93,0,0,0-1.43-.6m0-.41A2.43,2.43,0,0,1,229.71,26a2.38,2.38,0,0,1,.33,1.22,2.42,2.42,0,0,1-1.22,2.12,2.47,2.47,0,0,1-1.22.32,2.51,2.51,0,0,1-1.23-.32,2.46,2.46,0,0,1,0-4.24,2.41,2.41,0,0,1,1.23-.33"/><path class="cls-1" d="M227.63,26.28c.36,0,.53.11.53.35s-.25.38-.6.38h-.43v-.73Zm-.93-.41h0v2.69h.47V27.43h.39s.69,1.13.69,1.13h.54s-.7-1.08-.75-1.17a.69.69,0,0,0,.65-.74c0-.53-.32-.78-1-.78Z"/></g></g></svg>