<svg xmlns="http://www.w3.org/2000/svg" viewBox="0 0 127.66 41.49"><defs><style>.cls-1{fill:#00629b;}</style></defs><title>dab</title><g id="Layer_2" data-name="Layer 2"><g id="graphics"><polygon class="cls-1" points="0.29 35.52 1.23 35.52 2 40.07 2.02 40.07 2.79 35.52 3.78 35.52 4.56 40.09 4.58 40.09 5.34 35.52 6.27 35.52 5.1 41.38 4.02 41.38 3.27 36.96 3.25 36.96 2.51 41.38 1.42 41.38 0.29 35.52"/><path class="cls-1" d="M13,39.19l-.68-2.88h0l-.7,2.88Zm-1.25-3.67H13l1.54,5.85h-1l-.36-1.43H11.46l-.38,1.43h-1Z"/><polygon class="cls-1" points="19.53 36.31 18.14 36.31 18.14 35.52 21.84 35.52 21.84 36.31 20.47 36.31 20.47 41.38 19.53 41.38 19.53 36.31"/><polygon class="cls-1" points="26.47 35.52 29.64 35.52 29.64 36.31 27.41 36.31 27.41 37.93 29.51 37.93 29.51 38.72 27.41 38.72 27.41 40.59 29.7 40.59 29.7 41.38 26.47 41.38 26.47 35.52"/><path class="cls-1" d="M36.2,38.13a.87.87,0,0,0,.94-1c0-.63-.27-1-.89-1h-.79v1.91Zm-1.68-2.61h2.07A1.35,1.35,0,0,1,38.07,37c0,.75-.33,1.33-1,1.43v0c.58.06.88.38.92,1.2,0,.37,0,.83,0,1.19a.61.61,0,0,0,.28.5H37.27a1,1,0,0,1-.16-.51c0-.36,0-.68,0-1.11,0-.64-.21-.92-.85-.92h-.76v2.54h-.94Z"/><polygon class="cls-1" points="49.76 36.31 48.37 36.31 48.37 35.52 52.06 35.52 52.06 36.31 50.69 36.31 50.69 41.38 49.76 41.38 49.76 36.31"/><polygon class="cls-1" points="56.7 35.52 59.87 35.52 59.87 36.31 57.64 36.31 57.64 37.93 59.74 37.93 59.74 38.72 57.64 38.72 57.64 40.59 59.93 40.59 59.93 41.38 56.7 41.38 56.7 35.52"/><path class="cls-1" d="M68.35,39.28v.12c0,1.06-.43,2.09-1.81,2.09s-1.93-1-1.93-3,.46-3.05,1.94-3.05a1.61,1.61,0,0,1,1.77,1.84v.11h-.94v-.1c0-.54-.16-1.17-.84-1.14s-1,.43-1,2.31.32,2.37,1,2.37.87-.87.87-1.42v-.09Z"/><polygon class="cls-1" points="73.11 35.52 74.04 35.52 74.04 37.86 75.77 37.86 75.77 35.52 76.7 35.52 76.7 41.38 75.77 41.38 75.77 38.65 74.04 38.65 74.04 41.38 73.11 41.38 73.11 35.52"/><polygon class="cls-1" points="81.77 35.52 82.91 35.52 84.61 39.88 84.63 39.88 84.63 35.52 85.51 35.52 85.51 41.38 84.37 41.38 82.67 36.9 82.66 36.9 82.66 41.38 81.77 41.38 81.77 35.52"/><path class="cls-1" d="M93.38,38.42c0-2-.44-2.31-1-2.31s-1,.34-1,2.31.44,2.37,1,2.37,1-.35,1-2.37m-2.93,0c0-2.09.59-3.05,1.93-3.05s1.94,1,1.94,3.05-.59,3-1.94,3-1.93-1-1.93-3"/><polygon class="cls-1" points="99.14 35.52 100.08 35.52 100.08 40.59 102.34 40.59 102.34 41.38 99.14 41.38 99.14 35.52"/><path class="cls-1" d="M109.79,38.42c0-2-.44-2.31-1-2.31s-1,.34-1,2.31.44,2.37,1,2.37,1-.35,1-2.37m-2.93,0c0-2.09.59-3.05,1.93-3.05s1.94,1,1.94,3.05-.6,3-1.94,3-1.93-1-1.93-3"/><path class="cls-1" d="M118.55,40.69h0a1.22,1.22,0,0,1-1.28.8c-1.28,0-1.74-1-1.74-3s.59-3.05,1.94-3.05a1.6,1.6,0,0,1,1.72,1.69v.11h-.89v-.14c0-.43-.18-1-.82-1s-1,.44-1,2.31.32,2.37,1,2.37,1-.51,1-1.79h-1v-.71h1.87v3.09h-.71Z"/><polygon class="cls-1" points="125.16 39.09 123.65 35.52 124.69 35.52 125.68 38.04 126.68 35.52 127.66 35.52 126.1 39.09 126.1 41.38 125.16 41.38 125.16 39.09"/><path class="cls-1" d="M44.8,38.24a1.48,1.48,0,1,1-1.48-1.48,1.48,1.48,0,0,1,1.48,1.48"/><path class="cls-1" d="M125.16,0,2.33,0A2.35,2.35,0,0,0,0,2.35V30.59a2.33,2.33,0,0,0,2.33,2.34H125.16a2.34,2.34,0,0,0,2.33-2.34V2.35A2.34,2.34,0,0,0,125.16,0Zm.5,30.88H2v-29H125.66Z"/><path class="cls-1" d="M110.35,14.11H94.88V10h15.47a2.07,2.07,0,0,1,0,4.13m0,8.72H94.88V18.69h15.47a2.07,2.07,0,0,1,0,4.14m5.28-6.39a4.81,4.81,0,1,0,0-9.61H87.29a.33.33,0,0,0-.33.33V25.72a.33.33,0,0,0,.33.32h28.34a4.8,4.8,0,1,0,0-9.6"/><path class="cls-1" d="M53.74,19c-.18,0-.23-.11-.11-.24l6.7-7.66a.26.26,0,0,1,.42,0l6.83,7.66c.11.13.07.24-.11.24ZM66.45,7.09a.84.84,0,0,0-.53-.24h-7a.79.79,0,0,0-.53.24l-16,18.7c-.12.13-.07.24.11.24h4.87a.79.79,0,0,0,.53-.24l3-3.55A.79.79,0,0,1,51.4,22H69.59a.84.84,0,0,1,.54.24l3.07,3.56a.84.84,0,0,0,.53.24h8.76c.18,0,.23-.11.12-.24Z"/><path class="cls-1" d="M122.62,5.24h.32a.52.52,0,0,0,.32-.07.23.23,0,0,0,.08-.17.19.19,0,0,0,0-.13.18.18,0,0,0-.1-.09,1.25,1.25,0,0,0-.27,0h-.3Zm-.27.92V4.53h.57a1.45,1.45,0,0,1,.42,0,.32.32,0,0,1,.19.15.39.39,0,0,1,.08.25.48.48,0,0,1-.12.31.53.53,0,0,1-.34.14.38.38,0,0,1,.14.09,2.27,2.27,0,0,1,.23.32l.21.32h-.32l-.15-.26a1.07,1.07,0,0,0-.27-.37.32.32,0,0,0-.22-.06h-.15v.69Zm.67-2.1a1.36,1.36,0,0,0-.62.16,1.21,1.21,0,0,0-.47.48,1.13,1.13,0,0,0-.16.62,1.13,1.13,0,0,0,.16.62,1.18,1.18,0,0,0,.46.48,1.31,1.31,0,0,0,.63.16,1.28,1.28,0,0,0,.63-.16,1.12,1.12,0,0,0,.46-.48,1.22,1.22,0,0,0,0-1.24,1.21,1.21,0,0,0-.47-.48,1.39,1.39,0,0,0-.62-.16m0-.25a1.63,1.63,0,0,1,.74.19,1.56,1.56,0,0,1,.78,1.32,1.42,1.42,0,0,1-.21.75,1.44,1.44,0,0,1-.55.57,1.74,1.74,0,0,1-.76.19,1.64,1.64,0,0,1-.75-.19,1.53,1.53,0,0,1-.56-.57,1.5,1.5,0,0,1-.2-.75,1.59,1.59,0,0,1,.2-.75,1.53,1.53,0,0,1,.56-.57,1.74,1.74,0,0,1,.75-.19"/><path class="cls-1" d="M31.12,6.9h-24a.33.33,0,0,0-.33.33V20a.33.33,0,0,0,.33.33l7.56,0A.33.33,0,0,0,15,20l0-8.85a.33.33,0,0,1,.33-.33H27.43a5.77,5.77,0,1,1,0,11.54H7.15a.33.33,0,0,0-.33.33v3.4a.33.33,0,0,0,.33.33h24a9.27,9.27,0,0,0,9.27-9.27v-1A9.27,9.27,0,0,0,31.12,6.9"/></g></g></svg>