<svg xmlns="http://www.w3.org/2000/svg" viewBox="0 0 183.87 25.53"><defs><style>.cls-1{fill:#00629b;}</style></defs><title>tsurumi</title><g id="Layer_2" data-name="Layer 2"><g id="graphics"><path class="cls-1" d="M29.59,0c-5.51,1-13,4.3-18.25,7.78C5.38,11.69-3,20.26,1.06,24.3,4.47,27.71,20,19.41,23.69,15.47c-14,7.8-17,2.94-15.65-.59,1.16-3.06,3.59-5.23,8-8.32A56.33,56.33,0,0,1,29.59,0"/><path class="cls-1" d="M21.37,13.5c2.52-1.39,4.07-3.4,3.46-4.49s-3.13-.85-5.64.54-4.07,3.41-3.46,4.5,3.13.84,5.64-.55"/><path class="cls-1" d="M13.18,9.61C24.69.25,36.87-2.33,40.42,2.39,42.17,4.71,42,14.69,22,22,30.57,18.43,38.86,9.73,34.79,5,32.1,1.9,25.67,1.84,13.18,9.61"/><path class="cls-1" d="M28.24,4.47c5.85-.58,9,3.91,2.88,10C26.3,19.27,19.3,23.76,7.06,25.53c6.36-1.65,15.79-5.14,21.18-12,3.74-4.75,3.67-7.47,0-9.06"/><polygon class="cls-1" points="59.94 1.53 59.94 5.69 55.3 5.69 55.3 23.91 50.88 23.91 50.88 5.69 46.27 5.69 46.27 1.53 59.94 1.53"/><path class="cls-1" d="M66.45,10.4A3.94,3.94,0,0,0,64,9.29,1.6,1.6,0,0,0,62.22,11c0,2.87,5.25,3,5.25,7.75,0,3.1-1.78,5.43-5,5.43a5.42,5.42,0,0,1-3-.87V20A4.39,4.39,0,0,0,62.1,21a1.87,1.87,0,0,0,2-1.9c0-1.34-1.06-1.85-2-2.54-2-1.35-3.22-2.64-3.22-5.19,0-2.75,1.6-5.13,4.56-5.13A5.94,5.94,0,0,1,66.45,7Z"/><path class="cls-1" d="M72.35,6.47V17.75c0,1.32-.16,3.31,1.71,3.31,1.69,0,1.69-1.27,1.71-2.57v-12h3.45V19.19c0,1.85-.21,5-5.18,5-3.22,0-5.14-1.5-5.14-4.76v-13Z"/><path class="cls-1" d="M80.65,23.91V6.47h3.47c2.2,0,6.13.23,6.13,5A4.84,4.84,0,0,1,87.78,16l3,7.94H87.18l-3-8H84.1v8.05ZM84.1,14l.6,0c1.57,0,2.2-1.06,2.2-2.49a2,2,0,0,0-2.34-2.18H84.1Z"/><path class="cls-1" d="M95.81,6.47V17.75c0,1.32-.16,3.31,1.71,3.31,1.69,0,1.69-1.27,1.71-2.57v-12h3.45V19.19c0,1.85-.21,5-5.18,5-3.22,0-5.14-1.5-5.14-4.76v-13Z"/><polygon class="cls-1" points="109.94 6.47 111.63 16.76 111.67 16.76 113.06 6.47 117.69 6.47 119.52 23.91 115.98 23.91 115.14 11.35 115.1 11.35 114.54 15.65 113.06 23.91 110.4 23.91 108.71 15.56 108.14 11.67 108.14 11.35 108.09 11.35 107.58 23.91 103.88 23.91 105.41 6.47 109.94 6.47"/><rect class="cls-1" x="121.27" y="6.47" width="3.45" height="17.44"/><path class="cls-1" d="M144.82,10.42c0,4.19-1.57,6.59-5.67,6.59l-1-.06v7h-4.42V1.53h4.6c.95,0,6.46-.59,6.46,6.62Zm-4-2.33c0-1.6.14-2.91-1.76-2.91h-.83v8.18c2.14.09,2.59-.71,2.59-3Z"/><path class="cls-1" d="M183.87,13.41c0,3.26-2.51,5.13-5.7,5.13l-.64-.05v5.42H174V6.49h3.58c.74,0,6.33-.46,6.33,5.15Zm-3.45-1.81c0-1.25-.89-2-2.37-2h-.52v5.89c1.66.07,2.89-.34,2.89-2.12Z"/><path class="cls-1" d="M149.1,6.47V17.75c0,1.32-.16,3.31,1.71,3.31,1.7,0,1.7-1.27,1.71-2.57v-12H156V19.19c0,1.85-.21,5-5.18,5-3.21,0-5.14-1.5-5.14-4.76v-13Z"/><polygon class="cls-1" points="162.99 6.47 164.68 16.76 164.72 16.76 166.11 6.47 170.74 6.47 172.56 23.91 169.03 23.91 168.19 11.35 168.15 11.35 167.59 15.65 166.11 23.91 163.45 23.91 161.76 15.56 161.19 11.67 161.19 11.35 161.14 11.35 160.63 23.91 156.93 23.91 158.46 6.47 162.99 6.47"/></g></g></svg>