<svg id="ef76c7b5-e394-4e40-9b61-9b71f8677718" data-name="Layer 1" xmlns="http://www.w3.org/2000/svg"
     viewBox="0 0 273.8 104.1">
    <defs>
        <style>.e7419ca0-c29e-4e30-a45c-0350b06d68dc{fill:#00629b;}</style>
    </defs>
    <title>Website By T&amp;D Creative Studio</title>
    <path class="e7419ca0-c29e-4e30-a45c-0350b06d68dc"
          d="M219.5,45H148.1V65.1h12.6a8.3,8.3,0,0,1,8.692,7.888q0.005,0.106.008,0.212v0.4a14.8,14.8,0,0,0-5.1-1.2,12.7,12.7,0,0,0-7.3,1.7c-2,1.2-6.2,4.5-6.2,10.2A9,9,0,1,0,163.3,76a10.4,10.4,0,0,1,7,2.5,10.7,10.7,0,0,1-2.8,18c-5.7,2.5-15-.7-20.3-1.3s-14.2.8-19.6,7.9c-3.6,4.7-4.8,7.6-5.5,11.6s-0.9,13.6,5.9,17.7,12.7,3.2,17.1.2a9.5,9.5,0,1,0-14.7-8,9.6,9.6,0,0,0,3.3,7.2,11.4,11.4,0,0,1-6.8-6.2,12,12,0,0,1,2.6-12.3c4-4.6,9.5-5.3,14.3-4.9a15.5,15.5,0,0,1,13.5,12.2c1.5,7.3-1.4,19.5-16.5,21.9s-23.4-5.1-27.2-11.6a21.2,21.2,0,0,1,2.3-24A24.1,24.1,0,0,1,128.6,99c1.7-.5,1.5-0.8.6-1.2s-6.1-3.1-8.5-6.4a13.612,13.612,0,0,1,.7-15.5c2.7-3.3,5.7-4.9,10.7-5.4s9.5,1.7,11.4,6.2a8.3,8.3,0,0,1-.3,7.5c-1,1.8-3.9,3.3-6,2.1a3.5,3.5,0,0,1-1.4-5c0.7-1,2.6-1.8,3.8-1.1s1.7-.7,1.1-1.5c-3.7-4.5-7.6-4.1-10.4-3.4s-8.7,5.1-3.8,12,16.6,6.3,20.3-.6,0.4-13.6-4.5-17.1-9-4.4-16.4-4.4V45.1H0v37l21.4,0.2c0-15,5-17.2,21.9-17.2v43.3c0,6.8-4,10.2-10.2,10.2H23.3v20.1H97.6s10.8,10.4,33.2,10.4c16.9,0,24.6-9.8,25.1-10.4h63.4c33.6,0,54.5-24.8,54.5-46.9C273.7,62.8,252.9,45,219.5,45Zm-139,63.6V65.1c16.9,0,21.9,2,21.9,17h0v0.6c0,4.7,2.8,10.5,10.7,14.2-14.9,0-23.4,12.4-24.4,21.6-1.8.1-8.3-2.1-8.3-9.9h0.1Zm80.7,10a15.2,15.2,0,0,0-5.2-7.9,20.5,20.5,0,0,0,13.5-2.6v2.4c0,3.7-4.6,8.1-8.3,8.1h0Zm53,0H202.9V65h12.8c16.4,0,21.1,13.8,21.1,26.7,0,15.6-4.7,26.9-22.6,26.9h0Z"
          transform="translate(0 -45)"/>
</svg>