<svg xmlns="http://www.w3.org/2000/svg" viewBox="0 0 226.44 27"><defs><style>.cls-1{fill:#00629b;}</style></defs><title>text_contact</title><g id="Layer_2" data-name="Layer 2"><g id="graphics"><path class="cls-1" d="M19.55,8l-1.12-.76A8.44,8.44,0,0,0,14,5.9,7.6,7.6,0,1,0,14,21.09a8.65,8.65,0,0,0,2.55-.39,11.47,11.47,0,0,0,3.06-1.55l2.16,5.33a22.12,22.12,0,0,1-1.94,1.11A14.14,14.14,0,0,1,13.71,27a13.5,13.5,0,1,1,0-27,13.27,13.27,0,0,1,4.22.72,17.22,17.22,0,0,1,3.92,2Z"/><path class="cls-1" d="M38.7.07A13.39,13.39,0,0,1,52.34,13.53c0,7.64-6,13.43-13.89,13.43s-13.9-5.79-13.9-13.43S30.53.07,38.7.07ZM30.92,13.53a7.49,7.49,0,1,0,15,0,7.49,7.49,0,1,0-15,0Z"/><path class="cls-1" d="M56.48,26.49V.54h6.77l9.9,15.37A23.62,23.62,0,0,1,75,20.3a19.88,19.88,0,0,1-.68-4.39L74.23.54h6.33v26H73.83L64,11.34c-.58-.9-.72-1.12-1.76-4.32a24.51,24.51,0,0,1,.5,4.28l.11,15.19Z"/><path class="cls-1" d="M83.09,6.16,83.27.54h18.28L99.86,6.16H95V26.49H88.52V6.16Z"/><path class="cls-1" d="M101.05,26.49,110.16.54h6.77l9.07,26h-7l-1.73-5.9H109.8l-1.73,5.9ZM110.73,16h5.62L114,7.7A11.14,11.14,0,0,1,113.58,5a12.91,12.91,0,0,1-.51,2.66Z"/><path class="cls-1" d="M146.66,8l-1.12-.76a8.38,8.38,0,0,0-4.46-1.33,7.6,7.6,0,1,0,.07,15.19,8.67,8.67,0,0,0,2.56-.39,11.61,11.61,0,0,0,3.06-1.55l2.16,5.33a21.94,21.94,0,0,1-2,1.11A14.13,14.13,0,0,1,140.83,27a13.5,13.5,0,1,1,0-27A13.21,13.21,0,0,1,145,.72a16.82,16.82,0,0,1,3.92,2Z"/><path class="cls-1" d="M150.91,6.16l.18-5.62h18.29l-1.69,5.62h-4.86V26.49h-6.48V6.16Z"/><path class="cls-1" d="M204.19.54V17.42c0,5.87-4.14,9.5-10.73,9.5s-10.69-3.63-10.69-9.5V.54h6.52V17c0,1.62.21,2.41,1,3.13a4.64,4.64,0,0,0,3.2,1.26,4.73,4.73,0,0,0,3.24-1.26c.76-.72,1-1.47,1-3.13V.54Z"/><path class="cls-1" d="M209.84,18.75a13.52,13.52,0,0,0,2.63,1.95A7.13,7.13,0,0,0,216,21.78c2.19,0,3.74-1.33,3.74-3.13,0-1.44-.79-2.24-2.73-2.74l-2-.5a12,12,0,0,1-3.82-1.52,6.17,6.17,0,0,1-2.81-5.36c0-4.79,4-8.39,9.36-8.39a13.65,13.65,0,0,1,3.49.47,14.46,14.46,0,0,1,4,1.62l-1.55,4.68a13,13,0,0,0-2.34-1.22A7.9,7.9,0,0,0,218.37,5c-2.05,0-3.49,1.23-3.49,3a2.14,2.14,0,0,0,1,1.76,6.15,6.15,0,0,0,1.69.75c.4.11,1.12.29,2.13.58a14.18,14.18,0,0,1,3.92,1.44A6.18,6.18,0,0,1,226.44,18c0,5.12-4.29,8.93-10.05,8.93a14,14,0,0,1-3.63-.5,14.28,14.28,0,0,1-5.15-2.67Z"/></g></g></svg>