<?xml version="1.0" standalone="no"?>
<!DOCTYPE svg PUBLIC "-//W3C//DTD SVG 20010904//EN"
 "http://www.w3.org/TR/2001/REC-SVG-20010904/DTD/svg10.dtd">
<svg version="1.0" xmlns="http://www.w3.org/2000/svg"
 width="2458.000000pt" height="2458.000000pt" viewBox="0 0 2458.000000 2458.000000"
 preserveAspectRatio="xMidYMid meet">
<metadata>
Created by potrace 1.11, written by Peter Selinger 2001-2013
</metadata>
<g transform="translate(0.000000,2458.000000) scale(0.100000,-0.100000)"
fill="#000000" stroke="none">
<path d="M12825 24565 c-260 -59 -466 -243 -548 -488 -103 -307 -2 -632 258
-833 51 -40 195 -108 261 -125 57 -14 52 -7 130 -155 31 -60 70 -133 85 -161
16 -29 42 -77 58 -105 15 -29 66 -123 111 -208 46 -85 97 -182 115 -215 18
-33 56 -105 85 -160 29 -55 56 -104 60 -110 4 -5 36 -64 71 -130 34 -66 71
-133 81 -150 10 -16 20 -37 24 -45 3 -8 12 -27 20 -42 12 -23 13 -28 2 -28 -8
0 -18 4 -23 9 -17 16 -363 128 -525 170 -193 50 -422 96 -630 127 -37 5 -70 9
-160 19 -30 3 -68 8 -85 10 -256 32 -888 38 -1135 10 -19 -2 -64 -7 -100 -10
-36 -2 -81 -7 -100 -9 -19 -3 -60 -7 -90 -11 -30 -3 -66 -8 -80 -10 -14 -2
-45 -7 -70 -10 -413 -56 -979 -192 -1350 -324 -63 -23 -122 -43 -130 -45 -24
-7 -276 -110 -380 -156 -122 -53 -384 -185 -496 -250 -48 -27 -89 -50 -91 -50
-2 0 -42 -25 -88 -55 -47 -30 -88 -55 -90 -55 -15 0 -401 -278 -485 -348 -225
-189 -363 -321 -556 -532 -135 -149 -318 -404 -437 -610 -33 -56 -131 -251
-149 -295 -9 -22 -28 -67 -41 -100 -72 -174 -144 -432 -163 -590 -3 -22 -7
-46 -9 -53 -10 -28 -20 -206 -20 -342 0 -201 12 -306 60 -560 14 -69 26 -136
29 -150 2 -14 16 -88 31 -165 14 -77 31 -167 36 -199 6 -33 12 -62 14 -65 2
-4 6 -27 10 -51 4 -25 15 -89 26 -143 10 -54 19 -104 19 -111 0 -7 -36 -40
-81 -72 -44 -32 -89 -66 -99 -74 -10 -8 -28 -22 -40 -30 -23 -16 -24 -17 -166
-132 -208 -168 -484 -435 -625 -603 -316 -379 -488 -725 -533 -1074 -12 -91
-13 -272 -2 -336 3 -16 8 -46 11 -65 15 -88 70 -251 108 -320 43 -78 82 -146
89 -155 130 -169 234 -275 365 -372 317 -235 732 -407 1273 -529 63 -14 124
-27 135 -29 11 -1 76 -12 145 -24 185 -31 191 -32 320 -47 88 -11 94 -11 113
-13 16 -1 17 -92 15 -1803 l-3 -1803 -425 -2 c-234 -1 -436 -2 -450 -2 l-25
-1 0 -566 0 -567 -42 -12 c-62 -18 -180 -81 -243 -128 -149 -112 -262 -265
-319 -433 -19 -58 -24 -77 -39 -154 -4 -19 -7 -89 -6 -155 1 -150 25 -251 94
-390 98 -198 267 -356 462 -431 35 -14 70 -28 78 -33 13 -7 15 -97 15 -712 l0
-704 453 -3 452 -2 0 -1148 0 -1149 -870 0 c-479 0 -873 -3 -876 -6 -6 -6
-181 -513 -188 -542 -1 -5 -15 -47 -30 -93 -24 -72 -30 -82 -52 -82 -20 0 -24
-5 -24 -30 0 -19 5 -29 13 -27 6 1 11 -5 9 -13 -3 -14 -158 -473 -443 -1320
-72 -212 -136 -404 -144 -427 l-13 -43 7494 0 c5691 0 7494 3 7494 12 0 10
-64 197 -206 601 -92 263 -151 432 -219 627 -25 74 -53 153 -62 175 -8 22 -25
71 -38 110 -13 38 -40 116 -59 173 -39 112 -39 113 -28 111 21 -4 30 3 27 19
-2 9 -4 21 -4 26 -1 4 -7 6 -15 3 -23 -9 -43 15 -64 78 -68 201 -223 639 -227
643 -3 3 -375 6 -827 6 l-823 1 -2 1147 -1 1148 456 2 457 3 0 702 c0 456 4
705 10 711 6 4 43 21 82 36 40 15 89 38 108 52 20 13 39 24 42 24 11 0 139
109 177 152 102 113 189 282 211 409 3 19 10 50 14 69 14 65 5 250 -18 345
-69 286 -288 532 -566 634 l-60 22 0 564 c0 559 0 565 -20 566 -11 0 -216 0
-457 1 l-436 0 0 2062 c0 1133 -3 2095 -6 2136 -9 120 -25 290 -31 335 -3 17
-7 46 -9 65 -14 113 -50 304 -84 450 -40 169 -144 511 -181 595 -5 11 -26 63
-47 115 -20 52 -66 155 -100 229 -35 73 -61 138 -58 143 3 5 23 22 45 37 189
137 528 454 708 660 265 305 465 656 526 924 2 10 6 26 9 35 3 9 8 31 11 47 2
17 7 40 9 53 35 172 16 445 -42 602 -9 25 -17 47 -18 50 -9 48 -149 300 -183
330 -3 3 -26 30 -51 60 -127 155 -360 334 -580 446 -52 27 -97 50 -100 52 -2
1 -5 23 -6 47 -3 57 -13 189 -19 235 -20 165 -29 222 -51 335 -92 481 -290
934 -548 1255 -233 290 -535 516 -882 658 -109 44 -295 103 -389 122 -33 7
-66 17 -72 22 -11 9 -29 37 -88 137 -5 9 -38 61 -71 116 -34 55 -182 298 -329
540 -230 377 -306 503 -360 593 -5 9 -86 141 -178 292 -93 151 -173 282 -178
290 -5 8 -49 83 -99 165 -49 83 -94 157 -98 165 -5 8 -1 38 11 75 24 75 30
254 12 341 -32 149 -99 272 -210 380 -88 86 -168 135 -290 176 -76 26 -108 31
-205 34 -72 1 -138 -3 -175 -11z"/>
</g>
</svg>
